<mxfile host="app.diagrams.net" agent="Mozilla/5.0 (Macintosh; Intel Mac OS X 10_15_7) AppleWebKit/537.36 (KHTML, like Gecko) Chrome/129.0.0.0 Safari/537.36" version="24.7.16">
  <diagram name="Page-1" id="_e7TfeskGKeu-qeJZ2MW">
    <mxGraphModel dx="1474" dy="1121" grid="0" gridSize="10" guides="1" tooltips="1" connect="1" arrows="1" fold="1" page="1" pageScale="1" pageWidth="850" pageHeight="1100" math="0" shadow="0">
      <root>
        <mxCell id="0" />
        <mxCell id="1" parent="0" />
        <mxCell id="98RaF3ZdmC-hES9It3fr-31" value="&amp;nbsp; &amp;nbsp;" style="sketch=0;outlineConnect=0;gradientColor=none;html=1;whiteSpace=wrap;fontSize=12;fontStyle=0;shape=mxgraph.aws4.group;grIcon=mxgraph.aws4.group_availability_zone;strokeColor=#545B64;fillColor=none;verticalAlign=top;align=left;spacingLeft=30;fontColor=#545B64;dashed=1;" vertex="1" parent="1">
          <mxGeometry x="36" y="60" width="615" height="593" as="geometry" />
        </mxCell>
        <mxCell id="98RaF3ZdmC-hES9It3fr-35" style="edgeStyle=orthogonalEdgeStyle;rounded=0;orthogonalLoop=1;jettySize=auto;html=1;" edge="1" parent="1" source="98RaF3ZdmC-hES9It3fr-12">
          <mxGeometry relative="1" as="geometry">
            <mxPoint x="449" y="641" as="targetPoint" />
          </mxGeometry>
        </mxCell>
        <mxCell id="98RaF3ZdmC-hES9It3fr-12" value="&amp;nbsp; Github - CI/CD" style="sketch=0;outlineConnect=0;gradientColor=none;html=1;whiteSpace=wrap;fontSize=12;fontStyle=0;shape=mxgraph.aws4.group;grIcon=mxgraph.aws4.group_availability_zone;strokeColor=#545B64;fillColor=none;verticalAlign=top;align=left;spacingLeft=30;fontColor=#545B64;dashed=1;" vertex="1" parent="1">
          <mxGeometry x="350" y="711" width="198" height="121" as="geometry" />
        </mxCell>
        <mxCell id="76thyY7zCagZdgnZWgol-4" value="" style="fillColor=none;strokeColor=#000000;dashed=1;verticalAlign=top;fontStyle=0;fontColor=#147EBA;whiteSpace=wrap;html=1;" parent="1" vertex="1">
          <mxGeometry x="108" y="72" width="288" height="230" as="geometry" />
        </mxCell>
        <mxCell id="76thyY7zCagZdgnZWgol-24" value="" style="fillColor=none;strokeColor=#000000;dashed=1;verticalAlign=top;fontStyle=0;fontColor=#147EBA;whiteSpace=wrap;html=1;" parent="1" vertex="1">
          <mxGeometry x="244.5" y="115" width="130" height="155" as="geometry" />
        </mxCell>
        <mxCell id="76thyY7zCagZdgnZWgol-2" style="edgeStyle=orthogonalEdgeStyle;rounded=0;orthogonalLoop=1;jettySize=auto;html=1;" parent="1" edge="1">
          <mxGeometry relative="1" as="geometry">
            <mxPoint x="640" y="589" as="sourcePoint" />
          </mxGeometry>
        </mxCell>
        <mxCell id="76thyY7zCagZdgnZWgol-5" value="&lt;b&gt;Helios SingleStore Workspace Group&lt;/b&gt;" style="text;html=1;align=center;verticalAlign=middle;resizable=0;points=[];autosize=1;strokeColor=none;fillColor=none;" parent="1" vertex="1">
          <mxGeometry x="158" y="77" width="240" height="30" as="geometry" />
        </mxCell>
        <UserObject label="&lt;b style=&quot;font-weight:normal;&quot; id=&quot;docs-internal-guid-73b32405-7fff-98a0-957f-eaae8c826c4e&quot;&gt;&lt;img width=&quot;54px;&quot; height=&quot;43px;&quot; src=&quot;https://lh7-rt.googleusercontent.com/slidesz/AGV_vUddAJ1a1ggujd0R4N4ar0IQZpskn31Fkfkk_ZYX-iG9YF9ltCt2K36IRocndKwbbfOJEGLGiHXzwTsnGrFpURukpvH3hcgFpnegXURr3LGnbGjG6HY7cvflwLmpGFIE3vyxwLMMFgaW-EyT6gkOiPc12XPnyRPX=s2048?key=lUZmtGX_M0E-cmU79W0YfQ&quot;&gt;&lt;/b&gt;" link="&lt;b style=&quot;font-weight:normal;&quot; id=&quot;docs-internal-guid-73b32405-7fff-98a0-957f-eaae8c826c4e&quot;&gt;&lt;img width=&quot;54px;&quot; height=&quot;43px;&quot; src=&quot;https://lh7-rt.googleusercontent.com/slidesz/AGV_vUddAJ1a1ggujd0R4N4ar0IQZpskn31Fkfkk_ZYX-iG9YF9ltCt2K36IRocndKwbbfOJEGLGiHXzwTsnGrFpURukpvH3hcgFpnegXURr3LGnbGjG6HY7cvflwLmpGFIE3vyxwLMMFgaW-EyT6gkOiPc12XPnyRPX=s2048?key=lUZmtGX_M0E-cmU79W0YfQ&quot;&gt;&lt;/b&gt;" id="76thyY7zCagZdgnZWgol-9">
          <mxCell style="text;whiteSpace=wrap;html=1;" parent="1" vertex="1">
            <mxGeometry x="108" y="62" width="90" height="70" as="geometry" />
          </mxCell>
        </UserObject>
        <UserObject label="&lt;b style=&quot;font-weight:normal;&quot; id=&quot;docs-internal-guid-884f5d92-7fff-ee60-16e5-dd2f0b9bd695&quot;&gt;&lt;img width=&quot;54px;&quot; height=&quot;43px;&quot; src=&quot;https://lh7-rt.googleusercontent.com/slidesz/AGV_vUcm4hm1x2xkpY1sWxD3grEoylSnTT-pCMekLyW0di7_ZlpOOeraJLUCYCXu_mgM3AVZ9b616uEeBaSWIYRvS-Az83QAnTxTh6juuhJkVhV3FTIBUV2f1dvf9MBgjRY8oPPGSUrirWQHjNzzWqS9nAbgjpdlmnGw=s2048?key=lUZmtGX_M0E-cmU79W0YfQ&quot;&gt;&lt;/b&gt;" link="&lt;b style=&quot;font-weight:normal;&quot; id=&quot;docs-internal-guid-884f5d92-7fff-ee60-16e5-dd2f0b9bd695&quot;&gt;&lt;img width=&quot;54px;&quot; height=&quot;43px;&quot; src=&quot;https://lh7-rt.googleusercontent.com/slidesz/AGV_vUcm4hm1x2xkpY1sWxD3grEoylSnTT-pCMekLyW0di7_ZlpOOeraJLUCYCXu_mgM3AVZ9b616uEeBaSWIYRvS-Az83QAnTxTh6juuhJkVhV3FTIBUV2f1dvf9MBgjRY8oPPGSUrirWQHjNzzWqS9nAbgjpdlmnGw=s2048?key=lUZmtGX_M0E-cmU79W0YfQ&quot;&gt;&lt;/b&gt;" id="76thyY7zCagZdgnZWgol-10">
          <mxCell style="text;whiteSpace=wrap;html=1;" parent="1" vertex="1">
            <mxGeometry x="249.5" y="110" width="90" height="70" as="geometry" />
          </mxCell>
        </UserObject>
        <mxCell id="76thyY7zCagZdgnZWgol-12" value="&lt;b&gt;Database&lt;/b&gt;" style="text;html=1;align=center;verticalAlign=middle;resizable=0;points=[];autosize=1;strokeColor=none;fillColor=none;" parent="1" vertex="1">
          <mxGeometry x="299.5" y="120" width="80" height="30" as="geometry" />
        </mxCell>
        <mxCell id="76thyY7zCagZdgnZWgol-13" style="edgeStyle=orthogonalEdgeStyle;rounded=0;orthogonalLoop=1;jettySize=auto;html=1;entryX=0;entryY=0.5;entryDx=0;entryDy=0;" parent="1" edge="1">
          <mxGeometry relative="1" as="geometry">
            <mxPoint x="498" y="589" as="sourcePoint" />
          </mxGeometry>
        </mxCell>
        <mxCell id="98RaF3ZdmC-hES9It3fr-26" style="edgeStyle=orthogonalEdgeStyle;rounded=0;orthogonalLoop=1;jettySize=auto;html=1;entryX=0;entryY=0.5;entryDx=0;entryDy=0;" edge="1" parent="1" source="76thyY7zCagZdgnZWgol-15" target="76thyY7zCagZdgnZWgol-24">
          <mxGeometry relative="1" as="geometry" />
        </mxCell>
        <mxCell id="76thyY7zCagZdgnZWgol-15" value="Jupyter&amp;nbsp;&lt;div&gt;Notebook&lt;/div&gt;" style="sketch=0;outlineConnect=0;fontColor=#232F3E;gradientColor=none;fillColor=#000000;strokeColor=none;dashed=0;verticalLabelPosition=bottom;verticalAlign=top;align=center;html=1;fontSize=12;fontStyle=0;aspect=fixed;pointerEvents=1;shape=mxgraph.aws4.sagemaker_notebook;" parent="1" vertex="1">
          <mxGeometry x="139.5" y="173.57999999999993" width="33" height="37.85" as="geometry" />
        </mxCell>
        <UserObject label="&lt;b style=&quot;font-weight:normal;&quot; id=&quot;docs-internal-guid-955744a9-7fff-0de5-96c8-4dc6335de79f&quot;&gt;&lt;img width=&quot;54px;&quot; height=&quot;43px;&quot; src=&quot;https://lh7-rt.googleusercontent.com/slidesz/AGV_vUfWNETbl2sEyVUJWHCXP5iw_kYU339Docyb-O1qL0wTovmcI00Yx1k8Q-PlW6MDYsM12fJiyRuD3mCQt77kFnVUqe0cN5joC9qEKzHWpu0_ZK1958IeH9Fp-ytngyrh2Km30QK-xDW47GDSvdiEivDcqrVzMaS2=s2048?key=lUZmtGX_M0E-cmU79W0YfQ&quot;&gt;&lt;/b&gt;" link="&lt;b style=&quot;font-weight:normal;&quot; id=&quot;docs-internal-guid-955744a9-7fff-0de5-96c8-4dc6335de79f&quot;&gt;&lt;img width=&quot;54px;&quot; height=&quot;43px;&quot; src=&quot;https://lh7-rt.googleusercontent.com/slidesz/AGV_vUfWNETbl2sEyVUJWHCXP5iw_kYU339Docyb-O1qL0wTovmcI00Yx1k8Q-PlW6MDYsM12fJiyRuD3mCQt77kFnVUqe0cN5joC9qEKzHWpu0_ZK1958IeH9Fp-ytngyrh2Km30QK-xDW47GDSvdiEivDcqrVzMaS2=s2048?key=lUZmtGX_M0E-cmU79W0YfQ&quot;&gt;&lt;/b&gt;" id="76thyY7zCagZdgnZWgol-20">
          <mxCell style="text;whiteSpace=wrap;html=1;" parent="1" vertex="1">
            <mxGeometry x="268" y="165" width="90" height="70" as="geometry" />
          </mxCell>
        </UserObject>
        <mxCell id="76thyY7zCagZdgnZWgol-21" value="&lt;b&gt;Tables&lt;/b&gt;" style="text;html=1;align=center;verticalAlign=middle;resizable=0;points=[];autosize=1;strokeColor=none;fillColor=none;" parent="1" vertex="1">
          <mxGeometry x="268" y="215" width="60" height="30" as="geometry" />
        </mxCell>
        <mxCell id="76thyY7zCagZdgnZWgol-27" value="" style="shape=image;verticalLabelPosition=bottom;labelBackgroundColor=default;verticalAlign=top;aspect=fixed;imageAspect=0;image=data:image/png,iVBORw0KGgoAAAANSUhEUgAAANMAAADvCAMAAABfYRE9AAAAzFBMVEX///9iPOQ8KqhVJuLm4vphOuRbMePi3fkwGaXe2fmjntFzVearnO9LPK1RHuJgOeRYLONdNONTI+I5JqcfAKFcMuP7+v6SfOv49v5qR+Wkk+7HvfRmQeWei+04JKfRyPYxG6V5XOfWz/fu6/zBtvOKcuqZhexvTubq5vuxovC2qPHSyvaGbel/ZOi7r/JBMKrDv+Hh3/BdUbQpDaPQzefFuvS3s9tnXLjs6/VuZLunl+6Wj8xHAOFVR7F7csCDe8PJxuSMhcecls6rptX6boYXAAAHbElEQVR4nO3daVsaOxQH8MwgFLUiwkiprUhdu7qUarHWLvr9v9NNEAvMlj0nJzfnTV/cN/ndx8Mz/8yZhOxPSXB11nkJvQTjtdls7byBXoTh2mwmzcbmC+hlGC1qSpLtzqsh9EIM1syUJDu9D9ArMVdzU5J0kwPotZiqfybaVu/WoFdjphYm1lanQbTVsilJdhsfoRdkoFZNSbP79hP0krQrZ6J/gL0v76EXpVkFE/1d7+wPoJelVSWmJGl1z6HXpVOlJtpWrw+hV6Ze5SbWVp+PoNemWlUm1lZ70ItTrGoTbavWMfTylKrORB+XztahF6hQtSb2uHSCr604JpZC0IV7rom2FbZwL2BCF+5FTNjCvZgJV7gXNdFw38QS7sVNeMK9hAlNuJcyIQn3kiYU4V7WhCHcy5v8D/cqJt/DvZrJ73CvaPI63CubZuHez7bSMHkb7rVMLNx7mEL0TPTJ9ge0oFi6ppaHyT6a/l+mNV9+AQd35kw/N73Y3rxpX5gzNXzYh/m2NelvGTTB78NMb7NRmpo1sX0YwO3NByYybwLch7kct9PUiglqH+bqfpKm1kwQ+zDDX09/dvZMbB/G6fbmRjZOU8um2T6Ms7a67LfT1IHJ3T7M1desnzoy0f/SsL8PM/y91EgOTA72YR5XGsmFyfY+zJ+LSVFk3WRzH+bqe76RXJnY9qaNFDL4W2wkdya2D2O8rR4nJY3k0MTayuyQBU0UlSJXJtZW5raXaKIobyTHJjZkcW2GdFfZSM5NbMjCQLi/abfrRU5NsyELzQ+TWDTnkdyadGeXpr94f3YQJhrut5XD/YOQCMDEwr3SW4PLEbeRwExqs0tL0dxLk3y4H4o1EqhJMtxvlCUK70ysrUSHLC5T0UaCNs32zARSSDGa+2xibcUL94OSaO63iRvu6xJFnekM0FQ/u1QRzQVM+51tQFP1ntm0KpoLmMiLdw2tEQlNU3m4r4nmIiZC3mx3IU0lbaXWSMsmQl52dgBN+XAvlCi4JjJ9pdpWRkyzcD9vK140FzYRsn6m1laGTEnSmafgB7VfuzITIdetFqSpMTdtSD4K1ZoI2VNoK99N5OhzT7atvDcRcvi6K9dWCEyEnHel2gqFiQz2ZdoKh4mQ91/E2wqLiZBPb0XbCo+JkI+N3eBMZHgq9LiEykSXKZJCkJkIOUi4KQSdiZAPPc7vOkITGXJSCEYTDfebdW2F00TD/U714xJWEw33lW2F10SmJxVthdhUGe5Rmwg5Lgv3yE2l4R69qSTc4zcVw30Ipny4D8O0Gu4DMVHAItwHY1oK9wGZ/oX7oEzzcB+W6Snch2aiKaTZCc5EU8heeKbniqZoAjP1wjNNWxpDFgZN/ezWmKluH8ahqd2/NEjSGbIwZRpnD0ZFrNZrtzdtm0bZLytfBl/XbG9aNk3ur2yIWP1QnF3SNLXHN7ZEtI5OpIcstE0jC420Wocqs0saplF2a+XWndVhyWO5IQstU3+y9c2GiI1rrn5eJz27pGpqt6010lon99Wq7OySmmmU3dn7BJ0+w+YHW+Vml1RMfUuNtDAVjwY/FxyyUDPZa6Ql0+xo8JX/cRKzS9Km8eTRqmiRn3Zy934Jzy5JmkbZX+tnOSwyYf5o8AOx2SUpUz/7bu1BqMxUPBpcaHZJxjS5+GNflMvu+c/rRGaXxE3jzHYjlZmKR1LxZ5dETaPst6tTNAt7LPl7vw6a9eFezNTPvjpopCpT8Uiq+tklIVM7NRvNZU3FI6lqZ5cETONsw6Goan8v/9VqzewS12Qrmsuail+tVs4u8UwWo7mkqeTzuooPk+pN7ZHLRuKZip/XTUvDfZ3JfjSXNRWPBi+bXao20UaCuRC3/h1A4fO64uxSlak/ubebKKqL916jcCRVPtxXmCxGc27x39Xk7/3KhftSE43mAJbnEnn/lD8afCXcl5gsR3NuCb1TK4b7xZ5ZwWQ9mnNL8D3hdq8q3OdN4wlcI81L+N1n/uyc53C/anIRzbkl8T43H+6fZpeWTW6iObdk3lGXhvslk6Nozi259+75cD847fSeTZn1PS7Rkp0lKIT750P6HpxFc27Jz0fkw/1g5R8fSmHmw/t7v5TmWDy/90txNsfre79U5418vvdLfYbK33u/dObCfL33S2/Wzc97vzTn92hbgUal0tKeSez5d+mS/pxlNLmoaIomqIqmaIKqaIomqIqmaIKqaIomqIqmaIKqaIomqIqmaIKqaIomqIqmaIKqaIomqFrrhGeSO3Efh2k22KpzQZGXJuGvVlGZxE/cx2QSPXEflUn93i+fTar3fvltUjuSyneTypFU3psUjqRCYJI+kgqFSfJIKiQmqSOpsJjYkVSij0t4TOJHUmEyiaYQVCbBs3OQmYTu/UJnEkghCE3s87raP0CMJt7ZOThN9fd+YTXVnZ2D11R9dg5iU+XZOahNFWfnIDeVnp2D3lRy7xd+U/HsnBBM+bNzwjCtnp0Timn57JxgTEtn5wRkYmfn7AZnmqeQsEyze7+aoZnYK8afwZloCjFm+g9ebN2zFG6G0gAAAABJRU5ErkJggg==;" parent="1" vertex="1">
          <mxGeometry x="419" y="763.95" width="38.93" height="44.09" as="geometry" />
        </mxCell>
        <mxCell id="98RaF3ZdmC-hES9It3fr-4" value="" style="shape=image;verticalLabelPosition=bottom;labelBackgroundColor=default;verticalAlign=top;aspect=fixed;imageAspect=0;image=data:image/png,iVBORw0KGgoAAAANSUhEUgAAARMAAAC3CAMAAAAGjUrGAAAAUVBMVEX///9h2vtP1/tX2Pvl+P76/v/f9v7T8/7C7/3P8v6+7v3G8P31/P+G4fzK8f103vvs+v6t6v227P173/uL4vza9f6b5vyn6Pyf5/yo6fxs3Ps98eZIAAAK4ElEQVR4nO1d6YKivBKVhF2QXWze/0EvkIUKWcD+Rjvh5vyYGRccUtZeJ/F28/Dw8PDw8PDw8PDw8PDw8PDw8PDw8PDw8PDw8PDw8PD4e4RDlsTF25fFjzy/D+9fZz/SDuEFKOjT8+uLm4pchlGVf/Du/gJJgAOGeX3l48xFUTu/N9iuC5JP3+Y3MaJABA7ao2vqJ8K7q1DzjZv9Dl77xa3aYpRKJEvkUkK577WE6UqmvaRVSWQRyvDF+/4gCiqS2b1WExY8RKf2tvEkeJ+p7Dt2Gf7yzX8IT7IcnEfLozrtgQ4glQG9Nr3CwQ/VjJx+yiWsh6oJrvkzUb5FIVlVwk1JUAkiTYivoyjjuhYkxtEHkIr4So42iYTCK/f1Epx+/I4/D7LAcv90zh0LGsHTPXsWT5I7rdYXuo/e7VdAVB7L8WKOttx+2HMFtxuVo3kQjYs+er/fQIu1XmBgBoQD4mxiriSVMiCtQsT6CO4K+nUdT82LXFXi+VHGHulSs3J968/H7vVbIEu+a17l6RzK5jyNaU2seTfROck1uYaI6Huoe73m9sO8K+60DiMhb/nMnX4P4aFfLMUsHmnMbEFNPuzf3+V3MehdLMMLlkPKxJaDKF1teosDIPFzMr6n3YSCzC0SzP2xy0jxiTwr4zFY63cIJk2u4xbyM6Hih8vkoNNEZOJ6u42Ez974ngbYjrnpWl1CJvmxTFLBxxqz1CvJxGQ7CU/ViFBMHvQatnM/8rEhEwlTF1OoDS4Rd7KDWFww9Qi3ckf/afhMcLIeRznbREWyxFeqKVivVesbkOs5W2hOx2mRg8gMrKHtRV16T9qYzuf2kfGrZUJgaQltZ+sicnxcKDgBXZttwYD2etFhU/AhhUL1kfv8Jkj4VDaWqX/FcJEsoVUW0mcSQBewegw8ql6qqADg+mts8LNP/Wc5hUabtI1YlY/EhtlWpdc5p/DQ+MXoQdORqVsGoBivPJP1EU3yZfNBl0jZeDDe+vDFkI79hDVD8g3zO6Z+TAFB6bhn5wrIl7vWKOF97FZ9OBAHEMyiP93rvqau92u0Y2esxoDHoenwO9LYS6YbB+Ji3Q87zJX+VhyCYNa/LkBri0aTMLAGhisax/1JtLAdDSLpn02bPpIhjsMFcTwkj7RtXk+TGFGZuiuWpJcFsrI6S/JvQ5OeBepyUrlkjHon+0pFE+zWsnJjm6ymc199+buAFsyzQ62zpl+C1e7DgsY1FnEo0xa7MaGruJ9gHEW0GKTt2SIbq93nYfR0qbkUlgqj4aUxW65Z/WnXbRPcXWFCpStSqXsk3Hg/iZZCmiSHeQaxHvxij4nBdaK4Ue9E020ENz2nWnOMaISShzal1d0AAKZOVBUoQSHdxTKM7C+TBWJ90K4eJBb6SsQvnEi9KPuTdlceoG4qWuF/sTwGcY7aYuz8XgNgBXdhpUZQ6RE+Ty9elgAbMtEz/hycYLN4EWDoL2A8gWARHFEd1ntrYqOf9XViOmCeHG7ZD+PDWYiEK8nO9VHjWfSG+hbxmw3HNTVD0yiujXrjpb1E1EvsdQNnfhDE/gycm4arvRaQp3v2dYsOtt7MYFYvmIkxN1vQ6lqyuLji3FEru2+bSOTb+2FTHmpFkFIhjNBnqcDtTjnTqkIyHeEdlgqFj8JVey1CGkgL4CEoGkEkwY69RZ8q2n23jqPo2HTVOvNhq9WkC2QE2lE1AaqQ70XCh4IrMqoo5Ho1PeGH/de2FUCVvB4IttNk/RNM1GvVdie4uApchzUfzopoy4ZhKfWGOqpZBNYOlbwLFMBAHwZwobZopHZr2ZTDrCU3sN9CIKPE6l1xMHvZpGYYdj1kP/XnyHb1moxhyzqBLj3VTTi4+k1sJo4FdVQ2bU/oj6cMk0JNbpI0KCCHp1RdKIHI0qaePrkjI5EzZSETqEmhNh1xrsUUxawErXWznzOcbyoTGBxitens6FnMoxg/3ToqPuUPmTsicm4CnMxeJnAmTCfO5j4J5f5YlKKc0RO6XGjyV9YT6k+MbaLHRnDkeM+f6PZFrbDPn5yIO+zbFmKDTk+UcceYpsqf/dc4NvlwSzOAoryXnxia9BbmJzdxGqMAONoCfJnv5bH6FmNmYR7Lajz9sRP4aMUQ79Y7jD9pGeWA1cUaTREGViAhVdfFIIAJdbGmxrO0LuaL02wNpq3DXtImVf8EBJiEOqrKsGjWlbKPc27ss7HWIZUcDCs/e6EIfTZSJaEoV7So6Ufb22cD37hCxXnrkA48U9V1spawfuzIRhmyErIy6miH2B9hE4rUt+etQ3YYCnyx7kDfvhRUgfqRSJcBhZXdIgHnDeznO8Rk1lJnVGUy8StY5zvBSxQm6PITxyKmKHC+Y1VmAgHngE8glRYUI1jtD4swDvc1ZA2zDkmW4KwyHNjMudi+udkMeHghZAuSq9FM5szJLiRY0Ur6KRrPAOfFNqX0CmSAZIUnwisApnNjvsVc0a0Qp+3QeIpWOJjr1KGAfwp4/AA5xTAX6vhY4WaVEPknN+ZbortAy7GaVMBRlzueErEBnrA/VWN0Gfu3kchTiVzKXZyyGLGKz8aNhU3GzccODHt1SuQaGnUu7dEIZWps1+x4j+YqVpRkkTT7cnFWQJcksqAYJUrrwo9tk3P8WNpbmA2uTto+kPmxeHTFagRksgktmdkZHjVrEZQdUhCpzx5AayWK3My3H5v8ng1xWNd1URTzn2E8ZPe2eRmuwahqLWrP/wZFY9pkwYEWnNqX8XRcIAtobfvP9u8YhtLOgGymfSZj9daut504ln1epH40n83kBsiq1pgap69f7QccyX5Amt67u3mHQTq0rk7ysfzVvtHiKntpY83QsmCd5aAKgI8N2JYU9JD1gcjKLjbSb0CSVlV3me1DF3sfbHO+an5Wal9xCyNxsaqXaLaOBZowUx7tZ7l/BiY9K1VJ16HFoBBJKoWcOK6y6Zqcu6BOxVkrZfvmn8aaebCOUPE7YFOsoAwJnoexc3M0Z+rW1zhP6WbmD7HzlIht0VCkp0xcIxjXB8dC0QHNyqxlxbA+U932vLiMEGxnUoHFmdmD8NPr9EUeGQAct7ftRnwUKmg+MrthBblrD3JGhqUjv9NIDus2zlejIjFZRqkP7A4h0aaxHA/Y5jdvTepNUckZnJAJZBYc/OjQ/49MWJoSHJ7nfw3bGc70gWoukwN6QHcJmZw5ojEBtmNer+FQQIdwgvMtEJWQsd1qIQv2Nzik4r9E7hY2tQKukdvT3pg+6WAUve33MvQb7aXz7xyFOVSEPFVrNreCtL/CcsI5uQBjb6wVxBBywp6mMCbdFfd/vCrTf7ec2srORuE/XYUDZVMpuETKxgcQikbbxh3dPAj/4Rn0lNv29Lxv138u46Y7kQL8VqQQafjxBVgufylF46N3+x3k8j5Akdoq+t+BTwlxIF5DfPAh58sJ0B4riLDDxniTqa3R9sNNOGg3C6p3nD+nwRrPNMLG8IA/JWsx3QbKGPVpTZ8kz7g/3VnBggkun30FWVia8HIrIHMSYzxVExsvu9+0J0iApQBgQ7Mk2R8Wya5xvSbmkM7CWSViJhzlKkaGVRtD/yMkoYh7FNTIJV1xgzN9Fonw89ZnDzpdiJOQWO/6EGOPdqIUPjSN54v96P4MyHWocn2EoUKRpG3+iN+mXhVxkiXvX+bh4eHh4eHh4eHh4eHh4eHh4eHh4eHh4eHh4eHh4eHh8e/xP8BZW2xJHEssAAAAAElFTkSuQmCC;" vertex="1" parent="1">
          <mxGeometry x="466" y="767" width="73.63" height="49" as="geometry" />
        </mxCell>
        <mxCell id="98RaF3ZdmC-hES9It3fr-5" value="" style="shape=image;html=1;verticalAlign=top;verticalLabelPosition=bottom;labelBackgroundColor=#ffffff;imageAspect=0;aspect=fixed;image=https://cdn1.iconfinder.com/data/icons/ionicons-fill-vol-2/512/logo-javascript-128.png" vertex="1" parent="1">
          <mxGeometry x="360.5" y="760" width="52" height="52" as="geometry" />
        </mxCell>
        <mxCell id="98RaF3ZdmC-hES9It3fr-7" value="Amazon S3&lt;div&gt;(File bucket)&lt;/div&gt;" style="sketch=0;points=[[0,0,0],[0.25,0,0],[0.5,0,0],[0.75,0,0],[1,0,0],[0,1,0],[0.25,1,0],[0.5,1,0],[0.75,1,0],[1,1,0],[0,0.25,0],[0,0.5,0],[0,0.75,0],[1,0.25,0],[1,0.5,0],[1,0.75,0]];outlineConnect=0;fontColor=#232F3E;fillColor=#7AA116;strokeColor=#ffffff;dashed=0;verticalLabelPosition=bottom;verticalAlign=top;align=center;html=1;fontSize=12;fontStyle=0;aspect=fixed;shape=mxgraph.aws4.resourceIcon;resIcon=mxgraph.aws4.s3;" vertex="1" parent="1">
          <mxGeometry x="264" y="521" width="78" height="78" as="geometry" />
        </mxCell>
        <mxCell id="98RaF3ZdmC-hES9It3fr-21" style="edgeStyle=orthogonalEdgeStyle;rounded=0;orthogonalLoop=1;jettySize=auto;html=1;" edge="1" parent="1" source="98RaF3ZdmC-hES9It3fr-8">
          <mxGeometry relative="1" as="geometry">
            <mxPoint x="449" y="466" as="targetPoint" />
          </mxGeometry>
        </mxCell>
        <mxCell id="98RaF3ZdmC-hES9It3fr-22" style="edgeStyle=orthogonalEdgeStyle;rounded=0;orthogonalLoop=1;jettySize=auto;html=1;" edge="1" parent="1" source="98RaF3ZdmC-hES9It3fr-33">
          <mxGeometry relative="1" as="geometry">
            <mxPoint x="578" y="462" as="targetPoint" />
          </mxGeometry>
        </mxCell>
        <mxCell id="98RaF3ZdmC-hES9It3fr-8" value="AWS Amplify&lt;div&gt;(Web Hosting)&lt;/div&gt;" style="sketch=0;points=[[0,0,0],[0.25,0,0],[0.5,0,0],[0.75,0,0],[1,0,0],[0,1,0],[0.25,1,0],[0.5,1,0],[0.75,1,0],[1,1,0],[0,0.25,0],[0,0.5,0],[0,0.75,0],[1,0.25,0],[1,0.5,0],[1,0.75,0]];outlineConnect=0;fontColor=#232F3E;fillColor=#DD344C;strokeColor=#ffffff;dashed=0;verticalLabelPosition=bottom;verticalAlign=top;align=center;html=1;fontSize=12;fontStyle=0;aspect=fixed;shape=mxgraph.aws4.resourceIcon;resIcon=mxgraph.aws4.amplify;" vertex="1" parent="1">
          <mxGeometry x="409" y="524" width="80" height="80" as="geometry" />
        </mxCell>
        <mxCell id="98RaF3ZdmC-hES9It3fr-10" value="Amazoun Route 53&lt;div&gt;(DNS Hosting)&lt;/div&gt;" style="sketch=0;points=[[0,0,0],[0.25,0,0],[0.5,0,0],[0.75,0,0],[1,0,0],[0,1,0],[0.25,1,0],[0.5,1,0],[0.75,1,0],[1,1,0],[0,0.25,0],[0,0.5,0],[0,0.75,0],[1,0.25,0],[1,0.5,0],[1,0.75,0]];outlineConnect=0;fontColor=#232F3E;fillColor=#8C4FFF;strokeColor=#ffffff;dashed=0;verticalLabelPosition=bottom;verticalAlign=top;align=center;html=1;fontSize=12;fontStyle=0;aspect=fixed;shape=mxgraph.aws4.resourceIcon;resIcon=mxgraph.aws4.route_53;" vertex="1" parent="1">
          <mxGeometry x="539" y="347" width="78" height="78" as="geometry" />
        </mxCell>
        <mxCell id="98RaF3ZdmC-hES9It3fr-17" value="" style="dashed=0;outlineConnect=0;html=1;align=center;labelPosition=center;verticalLabelPosition=bottom;verticalAlign=top;shape=mxgraph.webicons.github;gradientColor=#DFDEDE" vertex="1" parent="1">
          <mxGeometry x="350" y="711" width="34" height="34" as="geometry" />
        </mxCell>
        <mxCell id="98RaF3ZdmC-hES9It3fr-23" style="edgeStyle=orthogonalEdgeStyle;rounded=0;orthogonalLoop=1;jettySize=auto;html=1;" edge="1" parent="1" source="98RaF3ZdmC-hES9It3fr-18" target="98RaF3ZdmC-hES9It3fr-20">
          <mxGeometry relative="1" as="geometry" />
        </mxCell>
        <mxCell id="98RaF3ZdmC-hES9It3fr-18" value="Amazon API Gateway&lt;div&gt;(Rest API)&lt;/div&gt;" style="sketch=0;points=[[0,0,0],[0.25,0,0],[0.5,0,0],[0.75,0,0],[1,0,0],[0,1,0],[0.25,1,0],[0.5,1,0],[0.75,1,0],[1,1,0],[0,0.25,0],[0,0.5,0],[0,0.75,0],[1,0.25,0],[1,0.5,0],[1,0.75,0]];outlineConnect=0;fontColor=#232F3E;fillColor=#E7157B;strokeColor=#ffffff;dashed=0;verticalLabelPosition=bottom;verticalAlign=top;align=center;html=1;fontSize=12;fontStyle=0;aspect=fixed;shape=mxgraph.aws4.resourceIcon;resIcon=mxgraph.aws4.api_gateway;" vertex="1" parent="1">
          <mxGeometry x="410" y="347" width="78" height="78" as="geometry" />
        </mxCell>
        <mxCell id="98RaF3ZdmC-hES9It3fr-25" style="edgeStyle=orthogonalEdgeStyle;rounded=0;orthogonalLoop=1;jettySize=auto;html=1;" edge="1" parent="1" target="98RaF3ZdmC-hES9It3fr-7">
          <mxGeometry relative="1" as="geometry">
            <mxPoint x="303" y="471" as="sourcePoint" />
          </mxGeometry>
        </mxCell>
        <mxCell id="98RaF3ZdmC-hES9It3fr-28" style="edgeStyle=orthogonalEdgeStyle;rounded=0;orthogonalLoop=1;jettySize=auto;html=1;" edge="1" parent="1" source="98RaF3ZdmC-hES9It3fr-20" target="98RaF3ZdmC-hES9It3fr-27">
          <mxGeometry relative="1" as="geometry" />
        </mxCell>
        <mxCell id="98RaF3ZdmC-hES9It3fr-20" value="AWS Lambda&lt;div&gt;(CRUD operations)&lt;/div&gt;" style="sketch=0;points=[[0,0,0],[0.25,0,0],[0.5,0,0],[0.75,0,0],[1,0,0],[0,1,0],[0.25,1,0],[0.5,1,0],[0.75,1,0],[1,1,0],[0,0.25,0],[0,0.5,0],[0,0.75,0],[1,0.25,0],[1,0.5,0],[1,0.75,0]];outlineConnect=0;fontColor=#232F3E;fillColor=#ED7100;strokeColor=#ffffff;dashed=0;verticalLabelPosition=bottom;verticalAlign=top;align=center;html=1;fontSize=12;fontStyle=0;aspect=fixed;shape=mxgraph.aws4.resourceIcon;resIcon=mxgraph.aws4.lambda;" vertex="1" parent="1">
          <mxGeometry x="264" y="347" width="78" height="78" as="geometry" />
        </mxCell>
        <mxCell id="98RaF3ZdmC-hES9It3fr-27" value="Salesforce &#xa;Information" style="shape=image;verticalLabelPosition=bottom;labelBackgroundColor=default;verticalAlign=top;aspect=fixed;imageAspect=0;image=https://upload.wikimedia.org/wikipedia/commons/thumb/f/f9/Salesforce.com_logo.svg/1200px-Salesforce.com_logo.svg.png;" vertex="1" parent="1">
          <mxGeometry x="86" y="349.08" width="105.5" height="73.85" as="geometry" />
        </mxCell>
        <mxCell id="98RaF3ZdmC-hES9It3fr-29" style="edgeStyle=orthogonalEdgeStyle;rounded=0;orthogonalLoop=1;jettySize=auto;html=1;entryX=0.45;entryY=1.013;entryDx=0;entryDy=0;entryPerimeter=0;" edge="1" parent="1" source="98RaF3ZdmC-hES9It3fr-20" target="76thyY7zCagZdgnZWgol-24">
          <mxGeometry relative="1" as="geometry" />
        </mxCell>
        <mxCell id="98RaF3ZdmC-hES9It3fr-30" value="" style="outlineConnect=0;dashed=0;verticalLabelPosition=bottom;verticalAlign=top;align=center;html=1;shape=mxgraph.aws3.cloud_2;fillColor=#F58534;gradientColor=none;" vertex="1" parent="1">
          <mxGeometry x="36" y="60" width="35" height="35" as="geometry" />
        </mxCell>
        <mxCell id="98RaF3ZdmC-hES9It3fr-34" value="" style="edgeStyle=orthogonalEdgeStyle;rounded=0;orthogonalLoop=1;jettySize=auto;html=1;" edge="1" parent="1" source="98RaF3ZdmC-hES9It3fr-8" target="98RaF3ZdmC-hES9It3fr-33">
          <mxGeometry relative="1" as="geometry">
            <mxPoint x="489" y="564" as="sourcePoint" />
            <mxPoint x="578" y="425" as="targetPoint" />
          </mxGeometry>
        </mxCell>
        <mxCell id="98RaF3ZdmC-hES9It3fr-33" value="Okta Verification&#xa;" style="shape=image;verticalLabelPosition=bottom;labelBackgroundColor=default;verticalAlign=top;aspect=fixed;imageAspect=0;image=data:image/jpeg,/9j/4AAQSkZJRgABAQAAAQABAAD/2wCEAAkGBw4OEBUODRAPEA8QFRYREBgYERAWFhYQFxYWFhcSExUYHSggGBolGxoVIjIhKCkrLi86GR80ODMtNystOisBCgoKDg0OGhAQGy0lHyUtLSsvMC8tLS0rMC0tLS0tLSsvLystLS0vLystLS0tLS0tLS0vLSstLS0tLS0rLS0tLf/AABEIAOEA4QMBEQACEQEDEQH/xAAbAAEAAgMBAQAAAAAAAAAAAAAAAQcEBQYDAv/EAEAQAAICAAIGBgcFBwQDAQAAAAABAgMEEQUGITFBUQcSE2FxkSIyQoGhscEUI1JiciRDkqLC0fAzc7LhY4KDU//EABoBAQACAwEAAAAAAAAAAAAAAAABBQMEBgL/xAAyEQEAAgECBAIJBQADAQEAAAAAAQIDBBEFEiExQVETMmFxgaHB0fAikbHh8SNCUkMV/9oADAMBAAIRAxEAPwC8QAAAAAAAAAAAAAAAAAAAAAAAAAAAAAAAAAAAAAAAAAAAAAAAAAAAAAAAAAAAAAAAAAAAAAAAAAAAAAAAAAAAAAAAAAAAAAAAAAAAAAAAAAAAAAAAAAGpx+suAw+y3E1Jrek+vL+GObM9NNlv2rLXyavDj9a0NJiOkbAxeUIYizvUIpfzST+BsV4dlnvMQ1LcVwx2iZ/Pawp9Jlfs4Wb8bIr5JmSOGT42+TFPF6+FJ/dEOkyHtYSa8LYv+lEzwyf/AF8iOL18aT+7Mo6R8FLZOrEQ7+rCSXlLP4GO3DskdphkrxbDPeJj897c4HWvR9+yGJrTfCecHny9PLM176XNTvX6trHrcF+1o/j+W5jJNZp5p7jXbSQAAAAAAAAAAAAAAAAAAAAAPPEXwqi7LJRhCO2Tk0kl3tk1rNp2hFrRWN5naHD6c6Ra4ZwwUO1f45ZqH/rHfL4Fjh4dM9ck7ezxVOfitY6Yo39vg4jSmn8Zi8+3unKL9lPqw/hWx+/MsseDHj9WPuqsuqy5fWt8PBrEjM10gAAEgMghnaN0ticK88PdZXxyTzi/GD2PyMWTFTJ60bs2LPkxepaY/j9naaF6Rd0MdX/9K0/OUP7P3Ffl4d445+ErXBxbwyx8Y+zusDjasRBWUTjZB8U89vJ8n3FZelqTtaNpW+PJXJHNWd4ZB5ewAAAAAAAAAAAAAAAAA0Ws2tGHwEcpfeXNZwrT2/qk/Zj3+WZs6fS3zT06R5tTVaymCOvWfJVGnNO4nHT62InnFPOEFshHwXPve0u8OCmKNqx93PZ9TkzTvefh4NaZmukAAAkABJCAkSAAzNF6Tvwk+0w83CXHlJcpR3NGPJipkja0MmLNfFbmpOy0NVtb6cblVZlVifw5+jPvrb+W/wASl1Ojti6x1j87uh0mvpn/AE26W8vP3OmNNYAAAAAAAAAAAAAAAHLa562RwMeypylipLYt6rT9uXfyX037uk0k5Z5rer/LQ1utjDHLX1v4VNiLp2zdlknOcnnKTebb7y7rWKxtHZzlrTaea09XwenkAASACEkABJIACBIAITFtNNNpp5prY01uaYTE7dYWZqVrd9oywuLku23Vz/8A0/K/z/Px30+r0fJ+unb+F/oNf6T/AI8nreE+f9u0K5bAAAAAAAAAAAAAaLW7WCOAo6yyd1mcaY/m4yf5Vs+C4mzpdPOa+3hHdqazVRgpv4z2U3iLp2zlZZJznNuUm97b4l/WsVjaOzmLWm0zae7zPTykAACEkASJAACBIAISAAAfUW0802mtqa3p80wbrX1H1j+2V9lc/wBoqXpfnhuU/Hg/+yj1mm9Fbmr2l0vD9Z6avLb1o+cef3dOaSxAAAAAAAAAADzxF8KoSssajCCcpN8IpZtk1rNp2h5taKxMz2hSOsOl547ESvnmov0a4/hrW6Pjxfe2dHgwxipFYcpqc858k3n4e5rTMwAAISQJJACYxbfVim29ySzb8ERPQjrO0NjTq/jp7Y4W9rvrkvnkYp1GKO9oZ66XPbtSf2fVmruPis5YW/3Qb+REanFP/aEzpM8d6S19tUoPqzjKEuUk0/JmWJiY3hr2iaztMbPklABIAABm6J0Zdi7VTRHOT2t8Ix4yk+CMeXLXHXmsy4cN81+Si3tX9B04Grs6tsntsm1tnLm+S5LgUGfPbNbeXUabTUwU5a/GfNtDC2QAAAAAAAAAA4TpQ0v1K4YOD22+nb/tp+jH3yX8pZcOw7zOSfDsqOK5+WsYo8es+7+1bFwokkIAJJAD7pqlOShCLlOTyikm23ySImYiN5TWJtO0R1d7oDo9zSsx8nz7OL+E5r5LzKvPxDwx/uudNwr/ALZp+EfWfs7jAaNw+GXVw9Vda49WKTfi9795W3yXvO9p3W+PDTHG1IiGUeGQA8MXhKro9S6uFkeUoqS+J6re1Z3rOzxfHW8bWjeHHad6PqppzwUuzlv6km3B9ylvj8V4Fhh4haOmTr7fFVajhVZ64uk+Xh/SvsZhLaJuq6EoWR3p/Nc13ota3reOas9FJelqW5bRtLxPTwkDM0Toy7F2qmiOcntb4RjxlJ8EY8uWuOvNZlw4b5r8lP8AFv6v6EpwNXZ1bZPbZNr0py5vkuS4FBnz2y23l1Om01MFOWvxnzZmNxddFcrbpKEILOTfyXN9xjpS17cte7LkyVx1m1p2iHLat64PF4udM4qFc1+zr2s45t9Z82tvd1cje1Gj9Fii0d/FWaTiPps00mNont8Pu7Ar1sAAAAAAAAAKO1j0j9rxVt+ecZSah/tx9GPwWfvOkwY/R44q5LVZfS5bX/b3NaZWukkAAH3TVKclCEXKcmoxS3uT2JI8zMRG8prWbTER3W5qjqvXgYdeeU8TNenLhFfgh3d/HyKLVaqc07R6rptFoq4K7z1tP5tDozUbwAAAAAHKdIUMH9mzxGy7b9n6uXXcuX6Of98je0M5Of8AT28fL/VbxOMPot79/Dz/AM8/uqwu3Ns3RGjLsXaqaI5ye1v2Yx4yk+CMeXLXHXmsy4cN81+Sn+Le0BoSnA1dnVtk9tk2vSnLm+S5LgUGfPbLbeXU6bTUwU5a/GfNmY7GV0VytukoQgs238lzfcY6Ute3LXuy5MlcdZtadohUms+sVmPs4wog/u4f1z5y+W7nnfabTVw19vjLltZrLai3lWO0fWfb/DV4LEyoshdD1q5Ka9zzy9+4z3rF6zWfFrY7zjtF47x1Xjhr42wjZB5xnFTj+lrNHM2rNZmJdnS0XrFo7S9SHoAAAAAABqtasZ9nwV1qeTUHGP6pehH4tGfTU58tYa+ryejw2t7FIpHRuSSAIEgAhYHRnoRPPHWLdnCj5Tmv+P8AEVfEM/8A84+K74Vpu+a3uj6z9FglUuwAAAAANVrDp2nA1dpZ6U5bK4J7Zy+iXF/9GfBgtmttHxlrarVU09Oa3fwjzVFpTSVuLtd18s5S3cox4RiuCL7Hjrjry1ctmzXy3579/wA6J0Rou7GWqmhZye2T9mMeMpPkMuWuKvNZODBfNfkp/i3tAaFpwNXZVLNvbZJ+tOXN93JcCgz57Zbby6nTaamCnLX4z5szHYyvD1ytukoQgs238lzfcY6Ute3LXuy5MlcdZtadohUms+sNmPs25wpg/u4f1y5y+W7nnfabTVw19vjLltXrLai3lWO0fWfb/DTGy0wC1+j/ABfa4GCe+qUqn4LbH+VootdTlzT7erqOGZOfTxHl0/Pg6Q01gAAAAAAA4/pPvccHGC/eWxT/AEqMpfNRN/h1d8sz5QrOLW2wxHnP9qtLpzqQAQkCYxbaUVm3sS5t7Eh707TPSF66KwUcPRXRHdXBR8Wltfveb95zOS83vNp8XY4ccY6RSPCGRbYoRcpPKMU5PwW1nmI3naHuZiI3lV+N1/xk7HKjs66s/Ri4KTcfzvn4ZF1Th+OK7W6y53JxXNNt6bRH53dnqrrNXj4ZPKGIgvThnvX44c4/LyzrtTpZwz5wttHra6iu3a0d4+sN+ardANVrDp2rA1dpZ6U5ZquCe2UvolxZnwYLZrbR28Za2q1VNPTmt38I81RaU0jbi7XdfLrTlu5RjwjFcEi+x46468tXK5s18t5veev50fWh9F3Yy1U0rNvbJv1Yx4yk+Qy5a4q81nrBgvmvyU/xb2gdC04Grsqlm3tsk/WnLm+7kuBQZs9stt5dTptNTBTlr8Z82VjsZXh65W3SUIQWbb+SXF9xjpS17cte7LkyVx1m1p2iFTazaw2Y+zN5wpg/u4f1S5y+XDjnfafT1w19vjLltZrLai3lWO0fX3tKbLTAJA77otv2X1cE4TXi1JP5RKriVfVn3rzg1ul6+6fz9neFWvAAAAAAAHB9K0/Qw8ecpvyUV9Sz4bHW0+5TcYn9NI9sq6LZRJAASBsdW6lPGURe7tYPyfW+hh1E7YrT7Gxpa82eke2F3HOOufFtanFwltjJOL8GsmTE7TvCJiJjaVNaxaBtwFvUn6Vcs+ynwlHk+UlxR0ODUVzV3jv4w5PVaW2nttPbwn88WuwuJspnG2qThZB5xa3p/VdxltWLRy27Nel7UtFqztMLZ1U1lrx8OrLKGIgvvI8Gvxw/L8vLOi1OmnDO8dnT6LW11Fdp6WjvH1j86MvWLTtWBq69npTlmq4J7ZS+iXF/9HjBgtmttHbxlk1Wqpp6bz38I81RaT0jbirXdfLrTl5RjwjFcEi+x46468tXLZs18t5veer70Poq7GWqmlZt7ZN+rGPGUnyIy5a4q81nrBgvmvyU/wAW7oLQ1OBq7KpZt7ZyfrTlzfdyXAoc2a2W3NZ1Om01MFOWvxnzbIwthV/SLjLZYrsJS+6rjGUI8M5LbJ83v/zMutBSsY+aO8ub4rkvObkmekRDlTfVYAAkDsejGX7RbHg6k/KS/uV3Eo/RX3rfg0/8to9n1WQU7oQAAAAAAHBdK0fQw75SsXmo/wBiz4b3t8FNxiP00n2yrwtlEkAAA2erFihjcPJ7u1ivN9X6mHURvit7mxpJ2z0n2rsOcdcAYuk9H1Yqp03x60JeafCUXwaPePJbHbmqx5cVctZpeOiotYtA24C3qT9KuX+lPLZJcnykuKL/AE+ormrvHfxhy2q0t9Pfae3hP54tdhcROmcbapOE4POLW9P+3cZbVi0bT2a9L2paLVnaYe2ktIW4qx3Xy605eSXCMVwRGPHXHXlq9Zct8t5veer00Poq7GWqmlZt7ZN+rGP4pP8AzM85ctcVeaz1gwXzX5Kf4t3QWhqcFUqqlm3tnJ+tOXN/RcChzZrZbc1nU6fT0wU5a/GfNsTC2ACptfrFLH2ZezGEX49VP6l9oY2wx8XLcTnfUz7oc8bbQSACEkDsOjKP7Ta+VWXnOP8AYr+Iz/xx71vwaP8Alt7vqsgp3RAAAAAAAOO6UKethITS9S5Z90XGS+fVLDh1tskx7FVxeu+GJ8p+6sS5c8ASAA+6rHCSnH1otSj4p5r4kTETG0kWms7x4L0wWJjdXC6Hq2RjNeDWZzN6zW01nwdnjvF6xaO09XueXsAxdJaPqxVbpuj1oS80+Eovg0e8eS2O3NVjy4qZazS8dFR6xaBtwFnUn6Vcv9OeWyS5PlJci/0+ormrvHfxhy2r0ttPbae3hP54vDQ+irsZaqaVm98m/VhH8Un/AJmesuWuKvNZjwYL578lP8W5oPQ9OCqVVS2vbOT9acub+i4FDmzWy25rOq0+npgpy1/1sTCzgEN5bXsSApLS+M+0Yi2/hZOUo/ozyj/LkdLipyUivlDjM+X0uW1/Ofl4fJiHthSAAkDuui+nbfZw+7gvH02/6Ss4lPqx715wWvr290fy70ql6AAAAAAA02uGE7fA3QSzah14+MGp/Q2NLfkzVn86tXXY+fBaPZv+3VTSOhckBKQgAAWN0baYU63g5v06851d9be1Lwb+PcVHEMO1vSR49/ev+E6jes4p7x2939O3K1cAADyxGHrti4WwjOL3qUU15MmtprO8Ts82pW8bWjeHzhMHVSurTXCuO/KMYxWfuJte1p3tO6KY6UjakRHue55ewABzOvml1h8M6oP72/OC5qHty8tnv7jd0WHnyc09oVvE9T6LFyx3t0+Hiq1Iu3MAEgAAFo9HuF7PBqbW26cp+71V/wAc/eUmvvzZdvLo6bhOPl0+/nMz9Po6Y0lmAAAAAAAiSTWT2p7H4AUfpnAPDYiyh/u5NR74PbF/wtHS4snpKRbzcdnxeiyWp5T8vBhmRhAJAAe+DxVlFkbqpdWcH1ovv5PmnuyPN6Res1t2l6x5LY7RaveFvauaeqx1XXhlGyOy2Ge2L5rnF8Gc/qNPbDbae3hLq9Jq6aim8d/GG3MDaAAAAAAwdMaUqwdTuueSWyK9qUuEYrmZcWK2W3LVg1Gopgpz3/1UWl9JWYu6V9u+WyK4Rgt0V/nMv8WKuOsVq5PPntmyTe3+exhmRhAAQkD7oplZKNcFnObUYr8zeSImYrG8vVazaYrHeei7MDho01Qpj6tcYwXgllmc1e83tNp8Xa4scY6RSPCNnueXsAAAAAAAA4DpN0V6mMgv/Fb/AES+a8i14dl74598fVR8Xwdsse6fo4ItFIASEAADIwOMtw9itom4Tjua5cmuK7jxelbxy2jo948t8duak7SsTQWvNFyUMXlRZu623s5d+fs+/Z3lTn0F69adY+a/03Fcd+mX9M/L+vi62uyMkpRalF7U00013NGhMTHSVrExMbw+iEgEN5bXsSA5rTeueFw6camr7eUX6Cf5p7vcszdw6LJfrbpCt1PE8WLpX9U+zt+6utK6Uvxdna3y6z9lboxXKK4FvixVx15aw57PqL5rc15+0MMyMIEJAASB1fR7ovtb3iJL0KPV77ZLZ5LN+9Ghr8vLTkjvP8LbhOn58vpJ7V/n+oWUUzpAAAAAAAAAB4Y/CQvqlTas4WRcZe/iu9bz1S80tFo7w8ZMdclJpbtKltK6Pswt06LfWg9/CUeEl3NHR4skZKxaHH5sNsN5pbw/N2IZGJIAABIAhDJwWOvoedFtlfF9WTSfitz955vjrf1o3ZMeW+P1LTHubinXLSMdnbKX6q4fRI150WGfD5tuvE9TH/bf3xCbNdNIyWStjHwrh9UyI0OGPD5pniepnxj9mqxuk8TiP9e6yxcnJ9X+FbPgZ6YqU9WIhqZc+XL69pn+P27MTIyMQEJAASAA9MPRO2ca611pzajFc2yLWisTM9nqlbXtFa95XFoPRkcJRCiO1xWc3+Kb9aXn9Dnc+Wct5tLsNLgjBiikfks8xNgAAAAAAAAAAOb101e+21dpUv2ipPqfnjvdb+nf4s3NHqfRW2ntP5ur+IaP09OavrR29vsVVKLTyaaa2NNZNNb00Xjl56d0EiQgIEgAJAAAJCAABIAABIQsXUXV50x+1Xxytmvu4tbYQfF8pP4LxZT63U888le3i6Phei9HHpbx1nt7I+8uvK9cAAAAAAAAAAAAAcbrpqp2+eJwsfvt9kF+8XNfn+fiWOk1fJ+i/b+FRxDh/pP+TH63jHn/AH/KuWmtj2NbH48mW7nQABIAABIQAAJAAAJABDt9TtVG3HFYuOSXpVQa38pzXLkis1er2/RT4yvOHcO32y5Y90fWfpDvSqX4AAAAAAAAAAAAAABzOs+qVeLztpyrxHF+zPumlx/N8zd02sti/TbrH8K3W8Orn/VXpb5T7/urbHYG3DzdV8JQmuD4rnF7mu9FxS9bxvWd3OZcV8VuW8bSxz2xgQkAAAkABIACQPTD0TskoVxlOctySzbItaKxvPZNKWvPLWN5WBqzqdGnK7F5TtW2MN8YPm/xS+C795UanWzf9NOzodFwuMe18vWfLwj7y68r1wAAAAAAAAAAAAAAAAAGLpHR1GJh2d9cZx4Z70+cXvT8D3jy2xzvWdmLNhx5a8t43hw2mNQrYZywc+0j+CTSmu5S3S9+RaYuIVnpkjZR6jhF69cU7x5T3/P2clisLZTLqXQnXLlKLXlnvN+t63jes7qnJjtjna8bT7XkengAASAAkD7pplZLqVxlOT3KKbfkiJmKxvKa1m07VjeXUaI1HxFuUsS1RDlslN+7dH3+Ro5dfSvSnWfktNPwnLfrk/THz+zudE6Hw+Ej1aIKLfrSe2Uv1S+m4q8ua+Wd7SvcGlxYI2pH3Z5ibAAAAAAAAAAAAAAAAAAAAADzxGHrtj1LYRnF71KKa8mTW01neJeb0reNrRvDQ4zUvAW7YwlU3+CTS/hea+Bt012avjv72hk4Xp79o2935s1F/R4v3WJaXKVafxUl8jYrxLzr82nfgv8A5v8AvH9ww59H+J9m6l+KmvozJHEaeUsM8Gy+Fo+ZHo/xXG6hfxv6If8A6OPykjg2X/1HzZVHR6/3mJ2cVGr6uX0Mc8S8q/NlrwWf+1/2j+22wepGBr2zVlr/ADT2eUcjBfX5bdujbx8J09e+8++fts32EwdVK6tNcK48oxS88jUte153tO6wx4qY42pER7nueXsAAAAAAAAAAAAAAAAAAAAAAAAAAAAAAAAAAAAAAAAAAAAAAAAAAAAAAAAAAAAAAAAAAAAAAAAAAAAAAAAAAAAAAAAAAAAAAAAAAAAAAAAAAAAAAAAAAAAAAAAAAAAAAAAAAAAAAAAAAAAAAAAAAB//2Q==;" vertex="1" parent="1">
          <mxGeometry x="537.5" y="523" width="81" height="81" as="geometry" />
        </mxCell>
        <mxCell id="98RaF3ZdmC-hES9It3fr-37" style="edgeStyle=orthogonalEdgeStyle;rounded=0;orthogonalLoop=1;jettySize=auto;html=1;" edge="1" parent="1" source="98RaF3ZdmC-hES9It3fr-36" target="98RaF3ZdmC-hES9It3fr-10">
          <mxGeometry relative="1" as="geometry" />
        </mxCell>
        <mxCell id="98RaF3ZdmC-hES9It3fr-36" value="" style="shape=actor;whiteSpace=wrap;html=1;" vertex="1" parent="1">
          <mxGeometry x="739" y="352" width="60" height="68" as="geometry" />
        </mxCell>
        <mxCell id="98RaF3ZdmC-hES9It3fr-38" value="User" style="text;html=1;align=center;verticalAlign=middle;resizable=0;points=[];autosize=1;strokeColor=none;fillColor=none;" vertex="1" parent="1">
          <mxGeometry x="750" y="422.93" width="43" height="26" as="geometry" />
        </mxCell>
      </root>
    </mxGraphModel>
  </diagram>
</mxfile>
